<svg width="24" height="24" viewBox="0 0 24 24" fill="none" xmlns="http://www.w3.org/2000/svg">
<path fill-rule="evenodd" clip-rule="evenodd" d="M9 4V19H15.5613C17.5402 18.9134 19.0766 17.2366 18.997 15.25C19.0766 13.2629 17.5393 11.5859 15.5599 11.5H13.0606C15.0401 11.4141 16.5773 9.73714 16.4978 7.75C16.5773 5.7629 15.0401 4.08579 13.0606 4H9Z" stroke="#3F484A" stroke-width="3" stroke-linecap="round" stroke-linejoin="round"/>
<path d="M7.79294 21.9355C7.79294 22.5234 8.27972 23 8.88019 23C9.48066 23 9.96745 22.5234 9.96745 21.9355H7.79294ZM8.88019 19.4516H9.96745C9.96745 18.8637 9.48066 18.3871 8.88019 18.3871V19.4516ZM6.08725 18.3871C5.48679 18.3871 5 18.8637 5 19.4516C5 20.0395 5.48679 20.5161 6.08725 20.5161V18.3871ZM9.96745 2.06452C9.96745 1.47661 9.48066 1 8.88019 1C8.27972 1 7.79294 1.47661 7.79294 2.06452H9.96745ZM8.88019 4.54839V5.6129C9.48066 5.6129 9.96745 5.1363 9.96745 4.54839H8.88019ZM6.08725 3.48387C5.48679 3.48387 5 3.96048 5 4.54839C5 5.1363 5.48679 5.6129 6.08725 5.6129V3.48387ZM12.9127 13.0645C13.5132 13.0645 14 12.5879 14 12C14 11.4121 13.5132 10.9355 12.9127 10.9355V13.0645ZM8.88019 10.9355C8.27972 10.9355 7.79294 11.4121 7.79294 12C7.79294 12.5879 8.27972 13.0645 8.88019 13.0645V10.9355ZM11.5158 4.54839C11.5158 5.1363 12.0026 5.6129 12.6031 5.6129C13.2037 5.6129 13.6903 5.1363 13.6903 4.54839H11.5158ZM13.6903 2.06452C13.6903 1.47661 13.2037 1 12.6031 1C12.0026 1 11.5158 1.47661 11.5158 2.06452H13.6903ZM11.5158 21.9355C11.5158 22.5234 12.0026 23 12.6031 23C13.2037 23 13.6903 22.5234 13.6903 21.9355H11.5158ZM13.6903 19.4516C13.6903 18.8637 13.2037 18.3871 12.6031 18.3871C12.0026 18.3871 11.5158 18.8637 11.5158 19.4516H13.6903ZM9.96745 21.9355V19.4516H7.79294V21.9355H9.96745ZM8.88019 18.3871H6.08725V20.5161H8.88019V18.3871ZM7.79294 2.06452V4.54839H9.96745V2.06452H7.79294ZM8.88019 3.48387H6.08725V5.6129H8.88019V3.48387ZM12.9127 10.9355H8.88019V13.0645H12.9127V10.9355ZM13.6903 4.54839V2.06452H11.5158V4.54839H13.6903ZM13.6903 21.9355V19.4516H11.5158V21.9355H13.6903Z" fill="#3F484A"/>
</svg>
